# AST/ASF file generated using VICON BodyLanguage
# -----------------------------------------------
:version 1.10
:name VICON
:units
  mass 1.0
  length 0.45
  angle deg
:documentation
   .ast/.asf automatically generated from VICON data using
   VICON BodyBuilder and BodyLanguage model FoxedUp or BRILLIANT.MOD
:root
   order TX TY TZ RX RY RZ
   axis XYZ
   position 0 0 0  
   orientation 0 0 0 
:bonedata
  begin
     id 1 
     name lhipjoint
     direction 0.54267 -0.795011 0.271047 
     length 2.39899 
     axis 0 0 0  XYZ
  end
  begin
     id 2 
     name lfemur
     direction 0.34202 -0.939693 0  
     length 7.49701  
     axis 0 0 20  XYZ
    dof rx ry rz
    limits (-160.0 20.0)
           (-70.0 70.0)
           (-60.0 70.0)
  end
  begin
     id 3 
     name ltibia
     direction 0.34202 -0.939693 0   
     length 8.1668   
     axis 0 0 20   XYZ
    dof rx
    limits (-10.0 170.0)
  end
  begin
     id 4 
     name lfoot
     direction 0.0736283 -0.202292 0.976554   
     length 2.13544   
     axis -90 7.62852e-016 20   XYZ
    dof rx rz
    limits (-45.0 90.0)
           (-70.0 20.0)
  end
  begin
     id 5 
     name ltoes
     direction 1.53557e-011 -4.22024e-011 1   
     length 1.07411   
     axis -90 7.62852e-016 20   XYZ
    dof rx
    limits (-90.0 20.0)
  end
  begin
     id 6 
     name rhipjoint
     direction -0.538061 -0.797813 0.272002   
     length 2.39057  
     axis 0 0 0  XYZ 
  end
  begin
     id 7 
     name rfemur
     direction -0.34202 -0.939693 0   
     length 7.50152   
     axis 0 0 -20   XYZ
    dof rx ry rz
    limits (-160.0 20.0)
           (-70.0 70.0)
           (-70.0 60.0)
  end
  begin
     id 8 
     name rtibia
     direction -0.34202 -0.939693 0   
     length 8.05793   
     axis 0 0 -20   XYZ
    dof rx
    limits (-10.0 170.0)
 end
 begin
     id 9 
     name rfoot
     direction -0.0765195 -0.210236 0.974652   
     length 2.28698  
     axis -90 -7.62852e-016 -20   XYZ
    dof rx rz
    limits (-45.0 90.0)
           (-20.0 70.0)
  end
  begin
     id 10 
     name rtoes
     direction -1.53542e-011 -4.21847e-011 1   
     length 1.14762   
     axis -90 -7.62852e-016 -20   XYZ
    dof rx
    limits (-90.0 20.0)
  end
  begin
     id 11 
     name lowerback
     direction -0.0217239 0.996592 -0.0795765   
     length 2.08176   
     axis 0 0 0   XYZ
    dof rx ry rz
    limits (-20.0 45.0)
           (-30.0 30.0)
           (-30.0 30.0)
  end
  begin
     id 12 
     name upperback
     direction -0.00563773 0.999651 -0.0258155   
     length 2.08898   
     axis 0 0 0   XYZ
    dof rx ry rz
    limits (-20.0 45.0)
           (-30.0 30.0)
           (-30.0 30.0)
  end
  begin
     id 13 
     name thorax
     direction 0.0032706 0.999923 0.0119599   
     length 2.0968   
     axis 0 0 0   XYZ
    dof rx ry rz
    limits (-20.0 45.0)
           (-30.0 30.0)
           (-30.0 30.0)
  end
  begin
     id 14 
     name lowerneck
     direction -0.0285886 0.99568 0.0883427   
     length 1.81272   
     axis 0 0 0   XYZ
    dof rx ry rz
    limits (-20.0 45.0)
           (-30.0 30.0)
           (-30.0 30.0)
  end
  begin
     id 15 
     name upperneck
     direction 0.0807535 0.97985 -0.18268   
     length 1.82518   
     axis 0 0 0   XYZ
    dof rx ry rz
    limits (-20.0 45.0)
           (-30.0 30.0)
           (-30.0 30.0)
  end
  begin
     id 16
     name head
     direction 0.0236605 0.997053 -0.0729767  
     length 1.84443  
     axis 0 0 0   XYZ
    dof rx ry rz
    limits (-20.0 45.0)
           (-30.0 30.0)
           (-30.0 30.0)
  end
  begin
     id 17 
     name lclavicle
     direction 0.918986 0.39378 -0.0200683  
     length 3.27822  
     axis 0 0 0   XYZ
    dof ry rz
    limits (-20.0 10.0)
           (0.0 20.0)
  end
  begin
     id 18 
     name lhumerus
     direction 1 -4.4897e-011 2.09544e-027   
     length 5.5568   
     axis 180 -30 -90   XYZ
    dof rx ry rz
    limits (-60.0 90.0)
           (-90.0 90.0)
           (-90.0 90.0)
  end
  begin
     id 19
     name lradius
     direction 1 -4.48957e-011 -1.27696e-026   
     length 3.63979   
     axis 180 -30 -90   XYZ
    dof rx
    limits (-10.0 170.0)
  end
  begin
     id 20
     name lwrist
     direction 1 -4.49001e-011 -1.49001e-026   
     length 1.8199   
     axis 9.0955e-015 90 90   XYZ
    dof ry
    limits (-180.0 0.0)
 end
  begin
     id 21 
     name lhand
     direction 1 -4.48709e-011 -2.9758e-026   
     length 0.569419   
     axis 1.90115e-014 90 90   XYZ
    dof rx rz
    limits (-90.0 90.0)
           (-45.0 45.0)
  end
  begin
     id 22 
     name lfingers
     direction 1 -4.49175e-011 -5.96505e-026   
     length 0.45908   
     axis 3.80223e-014 90 90   XYZ
    dof rx
    limits (0.0 90.0)
  end
  begin
     id 23
     name lthumb
     direction 0.707107 -6.34864e-011 0.707107   
     length 0.65915   
     axis -90 45 -3.84942e-014   XYZ
    dof rx rz
    limits (-45.0 45.0)
           (-45.0 45.0)
  end
  begin
     id 24 
     name rclavicle
     direction -0.911913 0.396426 -0.106115   
     length 3.46301  
     axis 0 0 0   XYZ 
    dof ry rz
    limits (-10.0 20.0)
           (-20.0 0.0)
  end
  begin
     id 25 
     name rhumerus
     direction -1 -4.48965e-011 7.78516e-028  
     length 5.34339   
     axis 180 30 90   XYZ
    dof rx ry rz
    limits (-90.0 60.0)
           (-90.0 90.0)
           (-90.0 90.0)
  end
  begin
     id 26 
     name rradius
     direction -1 -4.48948e-011 -5.79823e-027   
     length 3.65101   
     axis 180 30 90   XYZ
    dof rx
    limits (-10.0 170.0)
  end
  begin
     id 27 
     name rwrist
     direction -1 -4.48995e-011 -1.48996e-026   
     length 1.8255   
     axis 9.0955e-015 -90 -90   XYZ
    dof ry
    limits (-180.0 0.0)
  end
  begin
     id 28
     name rhand
     direction -1 -4.48957e-011 -2.97937e-026   
     length 0.694249   
     axis 1.90115e-014 -90 -90   XYZ
    dof rx rz
    limits (-90.0 90.0)
           (-45.0 45.0)
  end
  begin
     id 29
     name rfingers
     direction -1 -4.4898e-011 -5.95943e-026   
     length 0.559721   
     axis 3.80223e-014 -90 -90   XYZ
    dof rx
    limits (0.0 90.0)
  end
  begin
     id 30
     name rthumb
     direction -0.707107 -6.34969e-011 0.707107   
     length 0.803651   
     axis -90 -45 3.84942e-014   XYZ
    dof rx rz
    limits (-45.0 45.0)
           (-45.0 45.0)
  end
:hierarchy
  begin
    root lhipjoint rhipjoint lowerback
    lhipjoint lfemur
    lfemur ltibia
    ltibia lfoot
    lfoot ltoes
    rhipjoint rfemur
    rfemur rtibia
    rtibia rfoot
    rfoot rtoes
    lowerback upperback
    upperback thorax
    thorax lowerneck lclavicle rclavicle
    lowerneck upperneck
    upperneck head
    lclavicle lhumerus
    lhumerus lradius
    lradius lwrist
    lwrist lhand lthumb
    lhand lfingers
    rclavicle rhumerus
    rhumerus rradius
    rradius rwrist
    rwrist rhand rthumb
    rhand rfingers
  end

#!OML:ASF H:\Terrain\Walking\May29\JustinRory\rory.ASF
:FULLY-SPECIFIED
:DEGREES
17
root 16.0187 16.0593 -14.0971 6.81498 -4.54678 3.79405
lowerback 19.3271 -4.15728 3.19403
upperback 6.2572 -4.75139 1.29316
thorax -4.16843 -2.33152 0.639394
lowerneck -11.9624 -1.48247 0.243888
upperneck 13.4302 -1.58792 -3.05504
head 6.00834 -0.998917 -1.14453
rclavicle -5.88403e-014 1.66979e-014
rhumerus 4.52851 -24.5204 -80.2945
rradius 104.795
rwrist 15.9546
rhand -25.5394 48.5279
rfingers 7.12502
rthumb 0.99064 18.5505
lclavicle -5.88403e-014 1.66979e-014
lhumerus 50.316 -70.9976 68.8212
lradius 76.205
lwrist -7.6432
lhand -42.9143 10.7197
lfingers 7.12502
lthumb -15.7758 40.0969
rfemur -40.4392 8.2959 27.1667
rtibia 68.4079
rfoot -26.7122 -15.2318
rtoes 14.9101
lfemur -46.2391 8.57314 -2.29354
ltibia 84.8223
lfoot -9.35609 -4.77987
ltoes -22.2948
18
root 15.9826 16.0914 -13.7681 6.39327 -3.76913 3.3529
lowerback 19.7233 -4.09937 3.613
upperback 6.32757 -4.57242 1.34387
thorax -4.32086 -2.24112 0.44173
lowerneck -12.453 -1.98371 0.214381
upperneck 14.7304 -2.32614 -2.49324
head 6.49933 -1.32012 -1.04607
rclavicle -2.38542e-014 3.97569e-015
rhumerus 4.28442 -26.0564 -80.0438
rradius 103.545
rwrist 18.3323
rhand -29.1605 47.5655
rfingers 7.12502
rthumb -2.50669 17.6005
lclavicle -2.38542e-014 3.97569e-015
lhumerus 53.4679 -71.3602 65.5217
lradius 75.1811
lwrist -7.4772
lhand -42.8183 10.04
lfingers 7.12502
lthumb -15.6834 39.4244
rfemur -38.9281 7.80717 27.8132
rtibia 69.1892
rfoot -26.8805 -14.5007
rtoes 11.7042
lfemur -48.0777 8.37086 -1.89943
ltibia 82.1086
lfoot -10.4466 -3.86606
ltoes -24.2811
19
root 15.958 16.1201 -13.43 6.0644 -3.04307 3.25436
lowerback 19.9279 -4.07116 3.92787
upperback 6.37539 -4.46879 1.23028
thorax -4.40418 -2.18722 0.13214
lowerneck -12.4615 -2.46448 -0.0324833
upperneck 15.4058 -3.05656 -1.71134
head 6.72323 -1.61969 -0.830515
rclavicle 4.85035e-014 -3.26007e-014
rhumerus 3.72927 -27.4195 -79.5743
rradius 102.8
rwrist 17.2773
rhand -31.2431 47.2382
rfingers 7.12502
rthumb -4.5179 17.3064
lclavicle 4.85035e-014 -3.26007e-014
lhumerus 55.3131 -71.7431 63.5051
lradius 74.2503
lwrist -8.15481
lhand -42.6391 8.26523
lfingers 7.12502
lthumb -15.5108 37.6631
rfemur -37.7806 7.33271 27.9275
rtibia 70.3898
rfoot -26.8519 -12.4944
rtoes 13.4372
lfemur -49.7393 7.82621 -2.02635
ltibia 78.9119
lfoot -11.406 -2.86009
ltoes -26.9502
20
root 15.9385 16.1494 -13.0924 6.01312 -2.47894 3.40493
lowerback 19.8122 -4.06879 3.93405
upperback 6.34047 -4.47503 1.11052
thorax -4.39269 -2.18896 -0.00299209
lowerneck -12.1118 -2.80177 -0.318449
upperneck 15.7205 -3.54363 -1.23214
head 6.77378 -1.82827 -0.673467
rclavicle 2.62396e-014 -4.37326e-014
rhumerus 3.06639 -28.2257 -79.0241
rradius 102.211
rwrist 14.644
rhand -31.8293 47.2328
rfingers 7.12502
rthumb -5.08391 17.3138
lclavicle 2.62396e-014 -4.37326e-014
lhumerus 55.193 -71.8327 63.2364
lradius 73.6752
lwrist -9.43653
lhand -42.8348 5.86381
lfingers 7.12502
lthumb -15.6992 35.247
rfemur -37.3056 6.84144 27.713
rtibia 71.9941
rfoot -25.6622 -10.9983
rtoes 14.4862
lfemur -51.3346 7.16789 -2.42354
ltibia 75.2508
lfoot -11.4213 -2.69608
ltoes -25.8803
21
root 15.9274 16.1633 -12.7605 5.94138 -2.22297 3.85392
lowerback 19.7819 -3.96878 3.41987
upperback 6.34444 -4.45067 0.996289
thorax -4.34584 -2.17701 0.155077
lowerneck -12.0913 -3.01738 -0.377875
upperneck 16.1723 -3.83145 -1.19857
head 6.91614 -1.96618 -0.685247
rclavicle 1.07344e-014 -7.15625e-015
rhumerus 2.86836 -28.8728 -78.6911
rradius 101.25
rwrist 13.0611
rhand -32.4221 47.152
rfingers 7.12502
rthumb -5.65626 17.2475
lclavicle 1.07344e-014 -7.15625e-015
lhumerus 55.5472 -71.6671 62.16
lradius 73.7359
lwrist -10.6189
lhand -43.3701 4.40556
lfingers 7.12502
lthumb -16.2147 33.7475
rfemur -37.0934 6.08395 27.3051
rtibia 73.9415
rfoot -22.72 -11.9895
rtoes 5.88585
lfemur -52.5205 6.55156 -3.04166
ltibia 71.2997
lfoot -10.9402 -4.21081
ltoes -22.7252
22
root 15.9072 16.2363 -12.4302 5.80052 -2.12658 4.33447
lowerback 19.9126 -3.82218 2.89097
upperback 6.34735 -4.36049 0.896479
thorax -4.3797 -2.13326 0.331803
lowerneck -12.2744 -3.24298 -0.513903
upperneck 16.7231 -4.13166 -1.08635
head 7.13061 -2.10688 -0.666434
rclavicle -1.23246e-014 1.35174e-014
rhumerus 2.88674 -29.6523 -78.4019
rradius 100.079
rwrist 12.6978
rhand -33.4913 46.3598
rfingers 7.12502
rthumb -6.68855 16.4854
lclavicle -1.23246e-014 1.35174e-014
lhumerus 56.4405 -71.5137 60.5127
lradius 74.0465
lwrist -11.369
lhand -43.625 3.52429
lfingers 7.12502
lthumb -16.4601 32.846
rfemur -37.6897 5.804 26.4354
rtibia 76.1699
rfoot -20.3 -8.74831
rtoes 31.4838
lfemur -52.8913 5.97218 -3.69451
ltibia 66.8384
lfoot -10.229 -5.60351
ltoes -22.3725
23
root 15.9153 16.2554 -12.0984 5.75528 -2.26284 4.68106
lowerback 19.9154 -3.6698 2.59223
upperback 6.33765 -4.22711 0.779435
thorax -4.37828 -2.06827 0.343978
lowerneck -12.0465 -3.4701 -0.831391
upperneck 16.8769 -4.4453 -0.739695
head 7.15567 -2.24525 -0.530631
rclavicle -6.75868e-015 -2.38542e-015
rhumerus 3.12707 -30.4283 -78.3097
rradius 98.8807
rwrist 12.022
rhand -33.1573 45.8691
rfingers 7.12502
rthumb -6.36608 15.9847
lclavicle -6.75868e-015 -2.38542e-015
lhumerus 56.2297 -71.3775 59.9849
lradius 74.3257
lwrist -11.6415
lhand -43.3586 3.06496
lfingers 7.12502
lthumb -16.2037 32.4078
rfemur -38.1014 5.36752 25.7276
rtibia 78.4122
rfoot -16.7704 -7.0058
rtoes -5.50503
lfemur -53.1647 5.39593 -4.07236
ltibia 62.5076
lfoot -8.95038 -6.255
ltoes -21.8258
